<svg version="1.1" viewBox="0.0 0.0 600.0 371.0" fill="none" stroke="none" stroke-linecap="square" stroke-miterlimit="10" width="600" height="371" xmlns:xlink="http://www.w3.org/1999/xlink" xmlns="http://www.w3.org/2000/svg"><path fill="#ffffff" d="M0 0L600.0 0L600.0 371.0L0 371.0L0 0Z" fill-rule="nonzero"/><path stroke="#333333" stroke-width="1.0" stroke-linecap="butt" d="M77.5 332.5L581.5 332.5" fill-rule="nonzero"/><path stroke="#cccccc" stroke-width="1.0" stroke-linecap="butt" d="M77.5 283.5L581.5 283.5" fill-rule="nonzero"/><path stroke="#cccccc" stroke-width="1.0" stroke-linecap="butt" d="M77.5 234.5L581.5 234.5" fill-rule="nonzero"/><path stroke="#cccccc" stroke-width="1.0" stroke-linecap="butt" d="M77.5 185.5L581.5 185.5" fill-rule="nonzero"/><path stroke="#cccccc" stroke-width="1.0" stroke-linecap="butt" d="M77.5 137.5L581.5 137.5" fill-rule="nonzero"/><path stroke="#cccccc" stroke-width="1.0" stroke-linecap="butt" d="M77.5 88.5L581.5 88.5" fill-rule="nonzero"/><clipPath id="id_0"><path d="M77.55 88.28333L581.45 88.28333L581.45 332.45L77.55 332.45L77.55 88.28333Z" clip-rule="nonzero"/></clipPath><path stroke="#000000" stroke-width="2.0" stroke-linecap="butt" stroke-opacity="0.0" clip-path="url(#id_0)" d="M198.0 332.0L154.0 332.0L154.0 102.0C154.0 100.89543 154.89543 100.0 156.0 100.0L196.0 100.0C197.10457 100.0 198.0 100.89543 198.0 102.0Z" fill-rule="nonzero"/><path fill="#4cdc8b" clip-path="url(#id_0)" d="M198.0 332.0L154.0 332.0L154.0 102.0C154.0 100.89543 154.89543 100.0 156.0 100.0L196.0 100.0C197.10457 100.0 198.0 100.89543 198.0 102.0Z" fill-rule="nonzero"/><path stroke="#000000" stroke-width="2.0" stroke-linecap="butt" stroke-opacity="0.0" clip-path="url(#id_0)" d="M413.0 332.0L369.0 332.0L369.0 261.0C369.0 259.89542 369.89542 259.0 371.0 259.0L411.0 259.0C412.10458 259.0 413.0 259.89542 413.0 261.0Z" fill-rule="nonzero"/><path fill="#4cdc8b" clip-path="url(#id_0)" d="M413.0 332.0L369.0 332.0L369.0 261.0C369.0 259.89542 369.89542 259.0 371.0 259.0L411.0 259.0C412.10458 259.0 413.0 259.89542 413.0 261.0Z" fill-rule="nonzero"/><path stroke="#000000" stroke-width="2.0" stroke-linecap="butt" stroke-opacity="0.0" clip-path="url(#id_0)" d="M244.0 332.0L200.0 332.0L200.0 171.0C200.0 169.89543 200.89543 169.0 202.0 169.0L242.0 169.0C243.10457 169.0 244.0 169.89543 244.0 171.0Z" fill-rule="nonzero"/><path fill="#999999" clip-path="url(#id_0)" d="M244.0 332.0L200.0 332.0L200.0 171.0C200.0 169.89543 200.89543 169.0 202.0 169.0L242.0 169.0C243.10457 169.0 244.0 169.89543 244.0 171.0Z" fill-rule="nonzero"/><path stroke="#000000" stroke-width="2.0" stroke-linecap="butt" stroke-opacity="0.0" clip-path="url(#id_0)" d="M459.0 332.0L415.0 332.0L415.0 278.0C415.0 276.89542 415.89542 276.0 417.0 276.0L457.0 276.0C458.10458 276.0 459.0 276.89542 459.0 278.0Z" fill-rule="nonzero"/><path fill="#999999" clip-path="url(#id_0)" d="M459.0 332.0L415.0 332.0L415.0 278.0C415.0 276.89542 415.89542 276.0 417.0 276.0L457.0 276.0C458.10458 276.0 459.0 276.89542 459.0 278.0Z" fill-rule="nonzero"/><path stroke="#000000" stroke-width="2.0" stroke-linecap="butt" stroke-opacity="0.0" clip-path="url(#id_0)" d="M290.0 332.0L246.0 332.0L246.0 313.0C246.0 311.89542 246.89543 311.0 248.0 311.0L288.0 311.0C289.10458 311.0 290.0 311.89542 290.0 313.0Z" fill-rule="nonzero"/><path fill="#666666" clip-path="url(#id_0)" d="M290.0 332.0L246.0 332.0L246.0 313.0C246.0 311.89542 246.89543 311.0 248.0 311.0L288.0 311.0C289.10458 311.0 290.0 311.89542 290.0 313.0Z" fill-rule="nonzero"/><path stroke="#000000" stroke-width="2.0" stroke-linecap="butt" stroke-opacity="0.0" clip-path="url(#id_0)" d="M505.0 332.0L461.0 332.0L461.0 328.0C461.0 326.89542 461.89542 326.0 463.0 326.0L503.0 326.0C504.10458 326.0 505.0 326.89542 505.0 328.0Z" fill-rule="nonzero"/><path fill="#666666" clip-path="url(#id_0)" d="M505.0 332.0L461.0 332.0L461.0 328.0C461.0 326.89542 461.89542 326.0 463.0 326.0L503.0 326.0C504.10458 326.0 505.0 326.89542 505.0 328.0Z" fill-rule="nonzero"/><path fill="#000000" d="M26.784388 257.8198L26.690638 256.7573Q27.346888 256.67917 27.753138 256.39792Q28.159388 256.11667 28.425013 255.53854Q28.675013 254.9448 28.675013 254.21042Q28.675013 253.5698 28.487513 253.0698Q28.284388 252.5698 27.956263 252.33542Q27.612513 252.08542 27.221888 252.08542Q26.815638 252.08542 26.518763 252.3198Q26.206263 252.55417 26.003138 253.08542Q25.862513 253.4448 25.581263 254.6323Q25.300013 255.80417 25.050013 256.27292Q24.721888 256.89792 24.253138 257.1948Q23.768763 257.49167 23.175013 257.49167Q22.534388 257.49167 21.971888 257.1323Q21.393763 256.7573 21.112513 256.05417Q20.815638 255.33542 20.815638 254.47604Q20.815638 253.52292 21.128138 252.78854Q21.425013 252.05417 22.034388 251.66354Q22.628138 251.27292 23.378138 251.24167L23.456263 252.33542Q22.643763 252.42917 22.237513 252.9448Q21.815638 253.4448 21.815638 254.42917Q21.815638 255.46042 22.190638 255.92917Q22.565638 256.39792 23.096888 256.39792Q23.565638 256.39792 23.862513 256.0698Q24.159388 255.74167 24.471888 254.36667Q24.784388 252.97604 25.018763 252.46042Q25.378138 251.71042 25.909388 251.35104Q26.425013 250.99167 27.128138 250.99167Q27.815638 250.99167 28.425013 251.3823Q29.018763 251.77292 29.362513 252.5073Q29.690638 253.24167 29.690638 254.16354Q29.690638 255.33542 29.362513 256.1323Q29.018763 256.91354 28.331263 257.36667Q27.643763 257.80417 26.784388 257.8198ZM28.612513 247.27292L29.534388 247.11667Q29.628138 247.5698 29.628138 247.91354Q29.628138 248.49167 29.456263 248.80417Q29.268763 249.11667 28.971888 249.2573Q28.675013 249.3823 27.721888 249.3823L24.143763 249.3823L24.143763 250.14792L23.331263 250.14792L23.331263 249.3823L21.784388 249.3823L21.159388 248.33542L23.331263 248.33542L23.331263 247.27292L24.143763 247.27292L24.143763 248.33542L27.784388 248.33542Q28.237513 248.33542 28.362513 248.28854Q28.487513 248.22604 28.565638 248.10104Q28.643763 247.97604 28.643763 247.74167Q28.643763 247.55417 28.612513 247.27292ZM27.550013 242.3198L27.675013 241.22604Q28.628138 241.47604 29.159388 242.17917Q29.690638 242.8823 29.690638 243.96042Q29.690638 245.3198 28.846888 246.1323Q28.003138 246.92917 26.487513 246.92917Q24.925013 246.92917 24.065638 246.11667Q23.190638 245.30417 23.190638 244.02292Q23.190638 242.77292 24.034388 241.99167Q24.878138 241.1948 26.425013 241.1948Q26.518763 241.1948 26.706263 241.1948L26.706263 245.83542Q27.737513 245.77292 28.284388 245.2573Q28.815638 244.74167 28.815638 243.96042Q28.815638 243.3823 28.518763 242.97604Q28.206263 242.55417 27.550013 242.3198ZM25.846888 245.77292L25.846888 242.30417Q25.050013 242.36667 24.659388 242.6948Q24.050013 243.21042 24.050013 244.0073Q24.050013 244.74167 24.534388 245.24167Q25.018763 245.72604 25.846888 245.77292ZM31.940638 239.5698L23.331263 239.5698L23.331263 238.61667L24.128138 238.61667Q23.659388 238.27292 23.425013 237.85104Q23.190638 237.41354 23.190638 236.80417Q23.190638 236.0073 23.596888 235.39792Q24.003138 234.78854 24.753138 234.49167Q25.503138 234.17917 26.393763 234.17917Q27.346888 234.17917 28.112513 234.52292Q28.878138 234.85104 29.284388 235.5073Q29.690638 236.16354 29.690638 236.8823Q29.690638 237.41354 29.471888 237.83542Q29.237513 238.2573 28.909388 238.52292L31.940638 238.52292L31.940638 239.5698ZM26.471888 238.61667Q27.675013 238.61667 28.253138 238.1323Q28.815638 237.64792 28.815638 236.96042Q28.815638 236.2573 28.221888 235.7573Q27.628138 235.2573 26.378138 235.2573Q25.190638 235.2573 24.612513 235.74167Q24.018763 236.22604 24.018763 236.91354Q24.018763 237.58542 24.643763 238.10104Q25.268763 238.61667 26.471888 238.61667ZM27.690638 232.99167L27.534388 231.96042Q28.159388 231.86667 28.487513 231.47604Q28.815638 231.0698 28.815638 230.33542Q28.815638 229.61667 28.534388 229.27292Q28.237513 228.91354 27.831263 228.91354Q27.471888 228.91354 27.268763 229.22604Q27.128138 229.4448 26.909388 230.30417Q26.612513 231.46042 26.409388 231.91354Q26.190638 232.35104 25.815638 232.58542Q25.440638 232.8198 24.971888 232.8198Q24.565638 232.8198 24.206263 232.6323Q23.846888 232.4448 23.612513 232.11667Q23.440638 231.86667 23.315638 231.4448Q23.190638 231.02292 23.190638 230.52292Q23.190638 229.80417 23.409388 229.2573Q23.612513 228.6948 23.971888 228.42917Q24.331263 228.16354 24.925013 228.0698L25.065638 229.10104Q24.596888 229.16354 24.331263 229.5073Q24.050013 229.83542 24.050013 230.46042Q24.050013 231.17917 24.300013 231.49167Q24.534388 231.80417 24.862513 231.80417Q25.065638 231.80417 25.221888 231.67917Q25.393763 231.53854 25.503138 231.27292Q25.565638 231.11667 25.768763 230.33542Q26.081263 229.21042 26.268763 228.77292Q26.456263 228.33542 26.815638 228.08542Q27.175013 227.83542 27.721888 227.83542Q28.253138 227.83542 28.721888 228.14792Q29.175013 228.4448 29.440638 229.02292Q29.690638 229.60104 29.690638 230.33542Q29.690638 231.55417 29.190638 232.1948Q28.675013 232.8198 27.690638 232.99167ZM31.940638 222.5698L23.331263 222.5698L23.331263 221.61667L24.128138 221.61667Q23.659388 221.27292 23.425013 220.85104Q23.190638 220.41354 23.190638 219.80417Q23.190638 219.0073 23.596888 218.39792Q24.003138 217.78854 24.753138 217.49167Q25.503138 217.17917 26.393763 217.17917Q27.346888 217.17917 28.112513 217.52292Q28.878138 217.85104 29.284388 218.5073Q29.690638 219.16354 29.690638 219.8823Q29.690638 220.41354 29.471888 220.83542Q29.237513 221.2573 28.909388 221.52292L31.940638 221.52292L31.940638 222.5698ZM26.471888 221.61667Q27.675013 221.61667 28.253138 221.1323Q28.815638 220.64792 28.815638 219.96042Q28.815638 219.2573 28.221888 218.7573Q27.628138 218.2573 26.378138 218.2573Q25.190638 218.2573 24.612513 218.74167Q24.018763 219.22604 24.018763 219.91354Q24.018763 220.58542 24.643763 221.10104Q25.268763 221.61667 26.471888 221.61667ZM27.550013 211.3198L27.675013 210.22604Q28.628138 210.47604 29.159388 211.17917Q29.690638 211.8823 29.690638 212.96042Q29.690638 214.3198 28.846888 215.1323Q28.003138 215.92917 26.487513 215.92917Q24.925013 215.92917 24.065638 215.11667Q23.190638 214.30417 23.190638 213.02292Q23.190638 211.77292 24.034388 210.99167Q24.878138 210.1948 26.425013 210.1948Q26.518763 210.1948 26.706263 210.1948L26.706263 214.83542Q27.737513 214.77292 28.284388 214.2573Q28.815638 213.74167 28.815638 212.96042Q28.815638 212.3823 28.518763 211.97604Q28.206263 211.55417 27.550013 211.3198ZM25.846888 214.77292L25.846888 211.30417Q25.050013 211.36667 24.659388 211.6948Q24.050013 212.21042 24.050013 213.0073Q24.050013 213.74167 24.534388 214.24167Q25.018763 214.72604 25.846888 214.77292ZM29.550013 208.58542L23.331263 208.58542L23.331263 207.6323L24.268763 207.6323Q23.612513 207.27292 23.409388 206.97604Q23.190638 206.66354 23.190638 206.28854Q23.190638 205.7573 23.518763 205.21042L24.503138 205.5698Q24.268763 205.96042 24.268763 206.33542Q24.268763 206.6948 24.487513 206.97604Q24.690638 207.24167 25.065638 207.35104Q25.628138 207.53854 26.284388 207.53854L29.550013 207.53854L29.550013 208.58542ZM29.550013 201.39792L20.956263 201.39792L20.956263 200.27292L24.487513 200.27292L24.487513 195.80417L20.956263 195.80417L20.956263 194.66354L29.550013 194.66354L29.550013 195.80417L25.503138 195.80417L25.503138 200.27292L29.550013 200.27292L29.550013 201.39792ZM26.440638 192.96042Q24.706263 192.96042 23.878138 192.0073Q23.190638 191.21042 23.190638 190.05417Q23.190638 188.77292 24.034388 187.96042Q24.862513 187.1323 26.346888 187.1323Q27.550013 187.1323 28.237513 187.49167Q28.925013 187.85104 29.315638 188.55417Q29.690638 189.24167 29.690638 190.05417Q29.690638 191.35104 28.862513 192.16354Q28.018763 192.96042 26.440638 192.96042ZM26.440638 191.8823Q27.628138 191.8823 28.221888 191.36667Q28.815638 190.83542 28.815638 190.05417Q28.815638 189.2573 28.221888 188.74167Q27.628138 188.22604 26.409388 188.22604Q25.253138 188.22604 24.659388 188.7573Q24.065638 189.27292 24.065638 190.05417Q24.065638 190.83542 24.659388 191.36667Q25.237513 191.8823 26.440638 191.8823ZM29.550013 181.49167L28.628138 181.49167Q29.690638 182.22604 29.690638 183.47604Q29.690638 184.02292 29.487513 184.5073Q29.268763 184.97604 28.956263 185.21042Q28.628138 185.4448 28.159388 185.53854Q27.862513 185.60104 27.175013 185.60104L23.331263 185.60104L23.331263 184.53854L26.784388 184.53854Q27.596888 184.53854 27.893763 184.47604Q28.300013 184.3823 28.550013 184.0698Q28.784388 183.74167 28.784388 183.2573Q28.784388 182.78854 28.550013 182.3823Q28.300013 181.96042 27.878138 181.78854Q27.456263 181.60104 26.659388 181.60104L23.331263 181.60104L23.331263 180.55417L29.550013 180.55417L29.550013 181.49167ZM29.550013 178.58542L23.331263 178.58542L23.331263 177.6323L24.268763 177.6323Q23.612513 177.27292 23.409388 176.97604Q23.190638 176.66354 23.190638 176.28854Q23.190638 175.7573 23.518763 175.21042L24.503138 175.5698Q24.268763 175.96042 24.268763 176.33542Q24.268763 176.6948 24.487513 176.97604Q24.690638 177.24167 25.065638 177.35104Q25.628138 177.53854 26.284388 177.53854L29.550013 177.53854L29.550013 178.58542Z" fill-rule="nonzero"/><path fill="#000000" d="M65.05 332.21564Q65.05 330.6844 65.3625 329.7625Q65.675 328.825 66.28438 328.325Q66.90938 327.825 67.84688 327.825Q68.53438 327.825 69.05 328.10626Q69.58125 328.3875 69.925 328.91876Q70.26875 329.4344 70.45625 330.1844Q70.64375 330.9344 70.64375 332.21564Q70.64375 333.73126 70.33125 334.65314Q70.03438 335.575 69.40938 336.09064Q68.8 336.59064 67.84688 336.59064Q66.6125 336.59064 65.89375 335.7Q65.05 334.6375 65.05 332.21564ZM66.12813 332.21564Q66.12813 334.325 66.62813 335.02814Q67.12813 335.73126 67.84688 335.73126Q68.58125 335.73126 69.06563 335.02814Q69.56563 334.325 69.56563 332.21564Q69.56563 330.09064 69.06563 329.40314Q68.58125 328.7 67.83125 328.7Q67.1125 328.7 66.675 329.3094Q66.12813 330.09064 66.12813 332.21564Z" fill-rule="nonzero"/><path fill="#000000" d="M65.05 285.36667L66.15938 285.27292Q66.28438 286.08542 66.72188 286.49167Q67.175 286.89792 67.81563 286.89792Q68.56563 286.89792 69.09688 286.3198Q69.62813 285.74167 69.62813 284.80417Q69.62813 283.89792 69.1125 283.3823Q68.6125 282.85104 67.78438 282.85104Q67.28438 282.85104 66.8625 283.08542Q66.45625 283.3198 66.22188 283.67917L65.2375 283.55417L66.06563 279.14792L70.34688 279.14792L70.34688 280.14792L66.90938 280.14792L66.45625 282.46042Q67.22188 281.91354 68.06563 281.91354Q69.19063 281.91354 69.95625 282.6948Q70.7375 283.47604 70.7375 284.71042Q70.7375 285.86667 70.06563 286.72604Q69.2375 287.7573 67.81563 287.7573Q66.64375 287.7573 65.89375 287.10104Q65.15938 286.4448 65.05 285.36667Z" fill-rule="nonzero"/><path fill="#000000" d="M62.01875 238.78334L60.971874 238.78334L60.971874 232.06459Q60.58125 232.42397 59.95625 232.79897Q59.346874 233.15834 58.8625 233.33022L58.8625 232.31459Q59.7375 231.89272 60.39375 231.31459Q61.065624 230.72084 61.346874 230.15834L62.01875 230.15834L62.01875 238.78334ZM65.05 234.54897Q65.05 233.01772 65.3625 232.09584Q65.675 231.15834 66.28438 230.65834Q66.90938 230.15834 67.84688 230.15834Q68.53438 230.15834 69.05 230.43959Q69.58125 230.72084 69.925 231.25209Q70.26875 231.76772 70.45625 232.51772Q70.64375 233.26772 70.64375 234.54897Q70.64375 236.06459 70.33125 236.98647Q70.03438 237.90834 69.40938 238.42397Q68.8 238.92397 67.84688 238.92397Q66.6125 238.92397 65.89375 238.03334Q65.05 236.97084 65.05 234.54897ZM66.12813 234.54897Q66.12813 236.65834 66.62813 237.36147Q67.12813 238.06459 67.84688 238.06459Q68.58125 238.06459 69.06563 237.36147Q69.56563 236.65834 69.56563 234.54897Q69.56563 232.42397 69.06563 231.73647Q68.58125 231.03334 67.83125 231.03334Q67.1125 231.03334 66.675 231.64272Q66.12813 232.42397 66.12813 234.54897Z" fill-rule="nonzero"/><path fill="#000000" d="M62.01875 189.95L60.971874 189.95L60.971874 183.23125Q60.58125 183.59062 59.95625 183.96562Q59.346874 184.325 58.8625 184.49687L58.8625 183.48125Q59.7375 183.05937 60.39375 182.48125Q61.065624 181.8875 61.346874 181.325L62.01875 181.325L62.01875 189.95ZM65.05 187.7L66.15938 187.60625Q66.28438 188.41875 66.72188 188.825Q67.175 189.23125 67.81563 189.23125Q68.56563 189.23125 69.09688 188.65312Q69.62813 188.075 69.62813 187.1375Q69.62813 186.23125 69.1125 185.71562Q68.6125 185.18437 67.78438 185.18437Q67.28438 185.18437 66.8625 185.41875Q66.45625 185.65312 66.22188 186.0125L65.2375 185.8875L66.06563 181.48125L70.34688 181.48125L70.34688 182.48125L66.90938 182.48125L66.45625 184.79375Q67.22188 184.24687 68.06563 184.24687Q69.19063 184.24687 69.95625 185.02812Q70.7375 185.80937 70.7375 187.04375Q70.7375 188.2 70.06563 189.05937Q69.2375 190.09062 67.81563 190.09062Q66.64375 190.09062 65.89375 189.43437Q65.15938 188.77812 65.05 187.7Z" fill-rule="nonzero"/><path fill="#000000" d="M63.596874 140.10104L63.596874 141.11667L57.909374 141.11667Q57.909374 140.74167 58.034374 140.3823Q58.253124 139.80417 58.721874 139.24167Q59.20625 138.67917 60.1125 137.9448Q61.51875 136.78854 62.003124 136.11667Q62.503124 135.4448 62.503124 134.85104Q62.503124 134.22604 62.05 133.80417Q61.596874 133.36667 60.878124 133.36667Q60.1125 133.36667 59.659374 133.8198Q59.20625 134.27292 59.190624 135.08542L58.1125 134.97604Q58.221874 133.7573 58.940624 133.1323Q59.675 132.49167 60.909374 132.49167Q62.14375 132.49167 62.8625 133.17917Q63.58125 133.86667 63.58125 134.8823Q63.58125 135.39792 63.3625 135.89792Q63.159374 136.3823 62.659374 136.9448Q62.175 137.49167 61.05 138.4448Q60.096874 139.24167 59.815624 139.53854Q59.55 139.8198 59.378124 140.10104L63.596874 140.10104ZM65.05 136.8823Q65.05 135.35104 65.3625 134.42917Q65.675 133.49167 66.28438 132.99167Q66.90938 132.49167 67.84688 132.49167Q68.53438 132.49167 69.05 132.77292Q69.58125 133.05417 69.925 133.58542Q70.26875 134.10104 70.45625 134.85104Q70.64375 135.60104 70.64375 136.8823Q70.64375 138.39792 70.33125 139.3198Q70.03438 140.24167 69.40938 140.7573Q68.8 141.2573 67.84688 141.2573Q66.6125 141.2573 65.89375 140.36667Q65.05 139.30417 65.05 136.8823ZM66.12813 136.8823Q66.12813 138.99167 66.62813 139.6948Q67.12813 140.39792 67.84688 140.39792Q68.58125 140.39792 69.06563 139.6948Q69.56563 138.99167 69.56563 136.8823Q69.56563 134.7573 69.06563 134.0698Q68.58125 133.36667 67.83125 133.36667Q67.1125 133.36667 66.675 133.97604Q66.12813 134.7573 66.12813 136.8823Z" fill-rule="nonzero"/><path fill="#000000" d="M63.596874 91.26771L63.596874 92.28333L57.909374 92.28333Q57.909374 91.90833 58.034374 91.54896Q58.253124 90.97083 58.721874 90.40833Q59.20625 89.84583 60.1125 89.11146Q61.51875 87.95521 62.003124 87.28333Q62.503124 86.61146 62.503124 86.01771Q62.503124 85.39271 62.05 84.97083Q61.596874 84.53333 60.878124 84.53333Q60.1125 84.53333 59.659374 84.98646Q59.20625 85.43958 59.190624 86.25208L58.1125 86.14271Q58.221874 84.92396 58.940624 84.29896Q59.675 83.65833 60.909374 83.65833Q62.14375 83.65833 62.8625 84.34583Q63.58125 85.03333 63.58125 86.04896Q63.58125 86.56458 63.3625 87.06458Q63.159374 87.54896 62.659374 88.11146Q62.175 88.65833 61.05 89.61146Q60.096874 90.40833 59.815624 90.70521Q59.55 90.98646 59.378124 91.26771L63.596874 91.26771ZM65.05 90.03333L66.15938 89.93958Q66.28438 90.75208 66.72188 91.15833Q67.175 91.56458 67.81563 91.56458Q68.56563 91.56458 69.09688 90.98646Q69.62813 90.40833 69.62813 89.47083Q69.62813 88.56458 69.1125 88.04896Q68.6125 87.51771 67.78438 87.51771Q67.28438 87.51771 66.8625 87.75208Q66.45625 87.98646 66.22188 88.34583L65.2375 88.22083L66.06563 83.81458L70.34688 83.81458L70.34688 84.81458L66.90938 84.81458L66.45625 87.12708Q67.22188 86.58021 68.06563 86.58021Q69.19063 86.58021 69.95625 87.36146Q70.7375 88.14271 70.7375 89.37708Q70.7375 90.53333 70.06563 91.39271Q69.2375 92.42396 67.81563 92.42396Q66.64375 92.42396 65.89375 91.76771Q65.15938 91.11146 65.05 90.03333Z" fill-rule="nonzero"/><path fill="#000000" d="M162.91223 344.79376Q162.25598 344.54376 161.92786 344.10626Q161.61536 343.65314 161.61536 343.04376Q161.61536 342.10626 162.28723 341.46564Q162.97473 340.825 164.0841 340.825Q165.2091 340.825 165.8966 341.48126Q166.5841 342.1375 166.5841 343.075Q166.5841 343.66876 166.2716 344.10626Q165.9591 344.54376 165.31848 344.79376Q166.11536 345.04376 166.5216 345.6219Q166.92786 346.2 166.92786 346.9969Q166.92786 348.09064 166.1466 348.84064Q165.38098 349.59064 164.09973 349.59064Q162.8341 349.59064 162.05286 348.84064Q161.2716 348.09064 161.2716 346.96564Q161.2716 346.1219 161.69348 345.5594Q162.13098 344.9969 162.91223 344.79376ZM162.69348 342.9969Q162.69348 343.60626 163.0841 343.9969Q163.49036 344.3875 164.11536 344.3875Q164.72473 344.3875 165.11536 344.0125Q165.50598 343.6219 165.50598 343.0594Q165.50598 342.48126 165.09973 342.09064Q164.69348 341.6844 164.09973 341.6844Q163.49036 341.6844 163.0841 342.075Q162.69348 342.46564 162.69348 342.9969ZM162.36536 346.96564Q162.36536 347.41876 162.56848 347.84064Q162.78723 348.2625 163.2091 348.4969Q163.63098 348.73126 164.11536 348.73126Q164.86536 348.73126 165.34973 348.2469Q165.84973 347.7625 165.84973 347.0125Q165.84973 346.2469 165.34973 345.7469Q164.84973 345.2469 164.0841 345.2469Q163.3341 345.2469 162.84973 345.7469Q162.36536 346.23126 162.36536 346.96564ZM171.72473 349.45L171.72473 340.85626L175.53723 340.85626Q176.69348 340.85626 177.28723 341.09064Q177.88098 341.325 178.24036 341.91876Q178.59973 342.4969 178.59973 343.2Q178.59973 344.1219 178.00598 344.7469Q177.41223 345.3719 176.17786 345.54376Q176.63098 345.7625 176.86536 345.96564Q177.36536 346.41876 177.80286 347.10626L179.30286 349.45L177.86536 349.45L176.74036 347.66876Q176.24036 346.8875 175.91223 346.48126Q175.59973 346.075 175.3341 345.91876Q175.0841 345.7469 174.81848 345.66876Q174.63098 345.6375 174.19348 345.6375L172.86536 345.6375L172.86536 349.45L171.72473 349.45ZM172.86536 344.65314L175.31848 344.65314Q176.0841 344.65314 176.5216 344.4969Q176.97473 344.325 177.19348 343.98126Q177.42786 343.6219 177.42786 343.2Q177.42786 342.59064 176.97473 342.2Q176.53723 341.8094 175.5841 341.8094L172.86536 341.8094L172.86536 344.65314ZM180.19348 346.34064Q180.19348 344.60626 181.1466 343.77814Q181.94348 343.09064 183.09973 343.09064Q184.38098 343.09064 185.19348 343.9344Q186.0216 344.7625 186.0216 346.2469Q186.0216 347.45 185.66223 348.1375Q185.30286 348.825 184.59973 349.21564Q183.91223 349.59064 183.09973 349.59064Q181.80286 349.59064 180.99036 348.7625Q180.19348 347.91876 180.19348 346.34064ZM181.2716 346.34064Q181.2716 347.52814 181.78723 348.1219Q182.31848 348.71564 183.09973 348.71564Q183.8966 348.71564 184.41223 348.1219Q184.92786 347.52814 184.92786 346.3094Q184.92786 345.15314 184.3966 344.5594Q183.88098 343.96564 183.09973 343.96564Q182.31848 343.96564 181.78723 344.5594Q181.2716 345.1375 181.2716 346.34064ZM187.55286 349.45L187.55286 340.85626L188.61536 340.85626L188.61536 349.45L187.55286 349.45ZM190.55286 349.45L190.55286 340.85626L191.61536 340.85626L191.61536 349.45L190.55286 349.45ZM193.19348 346.34064Q193.19348 344.60626 194.1466 343.77814Q194.94348 343.09064 196.09973 343.09064Q197.38098 343.09064 198.19348 343.9344Q199.0216 344.7625 199.0216 346.2469Q199.0216 347.45 198.66223 348.1375Q198.30286 348.825 197.59973 349.21564Q196.91223 349.59064 196.09973 349.59064Q194.80286 349.59064 193.99036 348.7625Q193.19348 347.91876 193.19348 346.34064ZM194.2716 346.34064Q194.2716 347.52814 194.78723 348.1219Q195.31848 348.71564 196.09973 348.71564Q196.8966 348.71564 197.41223 348.1219Q197.92786 347.52814 197.92786 346.3094Q197.92786 345.15314 197.3966 344.5594Q196.88098 343.96564 196.09973 343.96564Q195.31848 343.96564 194.78723 344.5594Q194.2716 345.1375 194.2716 346.34064ZM204.66223 349.45L204.66223 348.52814Q203.92786 349.59064 202.67786 349.59064Q202.13098 349.59064 201.6466 349.3875Q201.17786 349.16876 200.94348 348.85626Q200.7091 348.52814 200.61536 348.0594Q200.55286 347.7625 200.55286 347.075L200.55286 343.23126L201.61536 343.23126L201.61536 346.6844Q201.61536 347.4969 201.67786 347.79376Q201.7716 348.2 202.0841 348.45Q202.41223 348.6844 202.8966 348.6844Q203.36536 348.6844 203.7716 348.45Q204.19348 348.2 204.36536 347.77814Q204.55286 347.35626 204.55286 346.5594L204.55286 343.23126L205.59973 343.23126L205.59973 349.45L204.66223 349.45ZM209.88098 348.5125L210.03723 349.4344Q209.5841 349.52814 209.24036 349.52814Q208.66223 349.52814 208.34973 349.35626Q208.03723 349.16876 207.8966 348.8719Q207.7716 348.575 207.7716 347.6219L207.7716 344.04376L207.00598 344.04376L207.00598 343.23126L207.7716 343.23126L207.7716 341.6844L208.81848 341.0594L208.81848 343.23126L209.88098 343.23126L209.88098 344.04376L208.81848 344.04376L208.81848 347.6844Q208.81848 348.1375 208.86536 348.2625Q208.92786 348.3875 209.05286 348.46564Q209.17786 348.54376 209.41223 348.54376Q209.59973 348.54376 209.88098 348.5125ZM210.16223 347.59064L211.19348 347.4344Q211.28723 348.0594 211.67786 348.3875Q212.0841 348.71564 212.81848 348.71564Q213.53723 348.71564 213.88098 348.4344Q214.24036 348.1375 214.24036 347.73126Q214.24036 347.3719 213.92786 347.16876Q213.7091 347.02814 212.84973 346.8094Q211.69348 346.5125 211.24036 346.3094Q210.80286 346.09064 210.56848 345.71564Q210.3341 345.34064 210.3341 344.8719Q210.3341 344.46564 210.5216 344.10626Q210.7091 343.7469 211.03723 343.5125Q211.28723 343.34064 211.7091 343.21564Q212.13098 343.09064 212.63098 343.09064Q213.34973 343.09064 213.8966 343.3094Q214.4591 343.5125 214.72473 343.8719Q214.99036 344.23126 215.0841 344.825L214.05286 344.96564Q213.99036 344.4969 213.6466 344.23126Q213.31848 343.95 212.69348 343.95Q211.97473 343.95 211.66223 344.2Q211.34973 344.4344 211.34973 344.7625Q211.34973 344.96564 211.47473 345.1219Q211.61536 345.29376 211.88098 345.40314Q212.03723 345.46564 212.81848 345.66876Q213.94348 345.98126 214.38098 346.16876Q214.81848 346.35626 215.06848 346.71564Q215.31848 347.075 215.31848 347.6219Q215.31848 348.15314 215.00598 348.6219Q214.7091 349.075 214.13098 349.34064Q213.55286 349.59064 212.81848 349.59064Q211.59973 349.59064 210.9591 349.09064Q210.3341 348.575 210.16223 347.59064ZM220.5841 351.84064L220.5841 343.23126L221.53723 343.23126L221.53723 344.02814Q221.88098 343.5594 222.30286 343.325Q222.74036 343.09064 223.34973 343.09064Q224.1466 343.09064 224.75598 343.4969Q225.36536 343.90314 225.66223 344.65314Q225.97473 345.40314 225.97473 346.29376Q225.97473 347.2469 225.63098 348.0125Q225.30286 348.77814 224.6466 349.1844Q223.99036 349.59064 223.2716 349.59064Q222.74036 349.59064 222.31848 349.3719Q221.8966 349.1375 221.63098 348.8094L221.63098 351.84064L220.5841 351.84064ZM221.53723 346.3719Q221.53723 347.575 222.0216 348.15314Q222.50598 348.71564 223.19348 348.71564Q223.8966 348.71564 224.3966 348.1219Q224.8966 347.52814 224.8966 346.27814Q224.8966 345.09064 224.41223 344.5125Q223.92786 343.91876 223.24036 343.91876Q222.56848 343.91876 222.05286 344.54376Q221.53723 345.16876 221.53723 346.3719ZM231.8341 347.45L232.92786 347.575Q232.67786 348.52814 231.97473 349.0594Q231.2716 349.59064 230.19348 349.59064Q228.8341 349.59064 228.0216 348.7469Q227.22473 347.90314 227.22473 346.3875Q227.22473 344.825 228.03723 343.96564Q228.84973 343.09064 230.13098 343.09064Q231.38098 343.09064 232.16223 343.9344Q232.9591 344.77814 232.9591 346.325Q232.9591 346.41876 232.9591 346.60626L228.31848 346.60626Q228.38098 347.6375 228.8966 348.1844Q229.41223 348.71564 230.19348 348.71564Q230.7716 348.71564 231.17786 348.41876Q231.59973 348.10626 231.8341 347.45ZM228.38098 345.7469L231.84973 345.7469Q231.78723 344.95 231.4591 344.5594Q230.94348 343.95 230.1466 343.95Q229.41223 343.95 228.91223 344.4344Q228.42786 344.91876 228.38098 345.7469ZM234.56848 349.45L234.56848 343.23126L235.5216 343.23126L235.5216 344.16876Q235.88098 343.5125 236.17786 343.3094Q236.49036 343.09064 236.86536 343.09064Q237.3966 343.09064 237.94348 343.41876L237.5841 344.40314Q237.19348 344.16876 236.81848 344.16876Q236.4591 344.16876 236.17786 344.3875Q235.91223 344.59064 235.80286 344.96564Q235.61536 345.52814 235.61536 346.1844L235.61536 349.45L234.56848 349.45ZM241.3341 346.6844L242.3966 346.59064Q242.47473 347.2469 242.75598 347.65314Q243.03723 348.0594 243.61536 348.325Q244.2091 348.575 244.94348 348.575Q245.5841 348.575 246.0841 348.3875Q246.5841 348.1844 246.81848 347.85626Q247.06848 347.5125 247.06848 347.1219Q247.06848 346.71564 246.8341 346.41876Q246.59973 346.10626 246.06848 345.90314Q245.7091 345.7625 244.5216 345.48126Q243.34973 345.2 242.88098 344.95Q242.25598 344.6219 241.9591 344.15314Q241.66223 343.66876 241.66223 343.075Q241.66223 342.4344 242.0216 341.8719Q242.3966 341.29376 243.09973 341.0125Q243.81848 340.71564 244.67786 340.71564Q245.63098 340.71564 246.36536 341.02814Q247.09973 341.325 247.49036 341.9344Q247.88098 342.52814 247.91223 343.27814L246.81848 343.35626Q246.72473 342.54376 246.2091 342.1375Q245.7091 341.71564 244.72473 341.71564Q243.69348 341.71564 243.22473 342.09064Q242.75598 342.46564 242.75598 342.9969Q242.75598 343.46564 243.0841 343.7625Q243.41223 344.0594 244.78723 344.3719Q246.17786 344.6844 246.69348 344.91876Q247.44348 345.27814 247.80286 345.8094Q248.16223 346.325 248.16223 347.02814Q248.16223 347.71564 247.7716 348.325Q247.38098 348.91876 246.6466 349.2625Q245.91223 349.59064 244.99036 349.59064Q243.81848 349.59064 243.0216 349.2625Q242.24036 348.91876 241.78723 348.23126Q241.34973 347.54376 241.3341 346.6844ZM253.6466 348.6844Q253.05286 349.1844 252.50598 349.3875Q251.97473 349.59064 251.34973 349.59064Q250.31848 349.59064 249.7716 349.09064Q249.22473 348.59064 249.22473 347.8094Q249.22473 347.35626 249.42786 346.98126Q249.63098 346.59064 249.97473 346.3719Q250.31848 346.1375 250.74036 346.02814Q251.03723 345.9344 251.67786 345.85626Q252.94348 345.71564 253.55286 345.4969Q253.55286 345.27814 253.55286 345.23126Q253.55286 344.575 253.25598 344.3094Q252.84973 343.96564 252.05286 343.96564Q251.31848 343.96564 250.9591 344.23126Q250.59973 344.48126 250.42786 345.1375L249.3966 344.9969Q249.53723 344.34064 249.86536 343.9344Q250.19348 343.52814 250.80286 343.3094Q251.41223 343.09064 252.2091 343.09064Q253.00598 343.09064 253.50598 343.27814Q254.00598 343.46564 254.24036 343.7469Q254.47473 344.02814 254.56848 344.46564Q254.61536 344.73126 254.61536 345.4344L254.61536 346.84064Q254.61536 348.3094 254.67786 348.7Q254.75598 349.09064 254.9591 349.45L253.84973 349.45Q253.69348 349.1219 253.6466 348.6844ZM253.55286 346.325Q252.97473 346.5594 251.8341 346.73126Q251.17786 346.825 250.91223 346.95Q250.6466 347.0594 250.49036 347.27814Q250.34973 347.4969 250.34973 347.77814Q250.34973 348.2 250.66223 348.48126Q250.99036 348.7625 251.59973 348.7625Q252.2091 348.7625 252.67786 348.4969Q253.16223 348.23126 253.38098 347.7625Q253.55286 347.40314 253.55286 346.71564L253.55286 346.325ZM256.5841 349.45L256.5841 343.23126L257.5216 343.23126L257.5216 344.10626Q257.81848 343.6375 258.30286 343.3719Q258.78723 343.09064 259.41223 343.09064Q260.09973 343.09064 260.53723 343.3719Q260.99036 343.65314 261.16223 344.16876Q261.91223 343.09064 263.0841 343.09064Q264.0216 343.09064 264.50598 343.60626Q265.00598 344.10626 265.00598 345.1844L265.00598 349.45L263.9591 349.45L263.9591 345.52814Q263.9591 344.90314 263.84973 344.6219Q263.75598 344.34064 263.49036 344.16876Q263.22473 343.9969 262.84973 343.9969Q262.19348 343.9969 261.75598 344.4344Q261.3341 344.8719 261.3341 345.84064L261.3341 349.45L260.2716 349.45L260.2716 345.40314Q260.2716 344.7 260.00598 344.35626Q259.75598 343.9969 259.17786 343.9969Q258.72473 343.9969 258.34973 344.23126Q257.97473 344.46564 257.80286 344.91876Q257.63098 345.3719 257.63098 346.21564L257.63098 349.45L256.5841 349.45ZM267.5841 351.84064L267.5841 343.23126L268.53723 343.23126L268.53723 344.02814Q268.88098 343.5594 269.30286 343.325Q269.74036 343.09064 270.34973 343.09064Q271.1466 343.09064 271.75598 343.4969Q272.36536 343.90314 272.66223 344.65314Q272.97473 345.40314 272.97473 346.29376Q272.97473 347.2469 272.63098 348.0125Q272.30286 348.77814 271.6466 349.1844Q270.99036 349.59064 270.2716 349.59064Q269.74036 349.59064 269.31848 349.3719Q268.8966 349.1375 268.63098 348.8094L268.63098 351.84064L267.5841 351.84064ZM268.53723 346.3719Q268.53723 347.575 269.0216 348.15314Q269.50598 348.71564 270.19348 348.71564Q270.8966 348.71564 271.3966 348.1219Q271.8966 347.52814 271.8966 346.27814Q271.8966 345.09064 271.41223 344.5125Q270.92786 343.91876 270.24036 343.91876Q269.56848 343.91876 269.05286 344.54376Q268.53723 345.16876 268.53723 346.3719ZM274.55286 349.45L274.55286 340.85626L275.61536 340.85626L275.61536 349.45L274.55286 349.45ZM281.8341 347.45L282.92786 347.575Q282.67786 348.52814 281.97473 349.0594Q281.2716 349.59064 280.19348 349.59064Q278.8341 349.59064 278.0216 348.7469Q277.22473 347.90314 277.22473 346.3875Q277.22473 344.825 278.03723 343.96564Q278.84973 343.09064 280.13098 343.09064Q281.38098 343.09064 282.16223 343.9344Q282.9591 344.77814 282.9591 346.325Q282.9591 346.41876 282.9591 346.60626L278.31848 346.60626Q278.38098 347.6375 278.8966 348.1844Q279.41223 348.71564 280.19348 348.71564Q280.7716 348.71564 281.17786 348.41876Q281.59973 348.10626 281.8341 347.45ZM278.38098 345.7469L281.84973 345.7469Q281.78723 344.95 281.4591 344.5594Q280.94348 343.95 280.1466 343.95Q279.41223 343.95 278.91223 344.4344Q278.42786 344.91876 278.38098 345.7469Z" fill-rule="nonzero"/><path fill="#000000" d="M372.21277 347.1844L373.27527 347.04376Q373.44714 347.9344 373.88464 348.34064Q374.32214 348.73126 374.94714 348.73126Q375.69714 348.73126 376.21277 348.21564Q376.7284 347.7 376.7284 346.9344Q376.7284 346.21564 376.24402 345.7469Q375.77527 345.2625 375.0409 345.2625Q374.74402 345.2625 374.2909 345.3875L374.4159 344.45Q374.52527 344.46564 374.58777 344.46564Q375.25964 344.46564 375.7909 344.1219Q376.33777 343.7625 376.33777 343.02814Q376.33777 342.45 375.94714 342.075Q375.55652 341.6844 374.93152 341.6844Q374.32214 341.6844 373.90027 342.075Q373.49402 342.46564 373.38464 343.23126L372.32214 343.04376Q372.50964 341.9969 373.19714 341.41876Q373.88464 340.825 374.90027 340.825Q375.6034 340.825 376.19714 341.1375Q376.7909 341.4344 377.1034 341.95Q377.4159 342.46564 377.4159 343.0594Q377.4159 343.60626 377.11902 344.075Q376.82214 344.52814 376.24402 344.79376Q376.99402 344.96564 377.4159 345.52814Q377.83777 346.075 377.83777 346.91876Q377.83777 348.04376 377.00964 348.825Q376.19714 349.60626 374.94714 349.60626Q373.82214 349.60626 373.07214 348.9344Q372.32214 348.2469 372.21277 347.1844ZM384.75964 348.4344L384.75964 349.45L379.07214 349.45Q379.07214 349.075 379.19714 348.71564Q379.4159 348.1375 379.88464 347.575Q380.36902 347.0125 381.27527 346.27814Q382.68152 345.1219 383.1659 344.45Q383.6659 343.77814 383.6659 343.1844Q383.6659 342.5594 383.21277 342.1375Q382.75964 341.7 382.0409 341.7Q381.27527 341.7 380.82214 342.15314Q380.36902 342.60626 380.3534 343.41876L379.27527 343.3094Q379.38464 342.09064 380.1034 341.46564Q380.83777 340.825 382.07214 340.825Q383.30652 340.825 384.02527 341.5125Q384.74402 342.2 384.74402 343.21564Q384.74402 343.73126 384.52527 344.23126Q384.32214 344.71564 383.82214 345.27814Q383.33777 345.825 382.21277 346.77814Q381.25964 347.575 380.9784 347.8719Q380.71277 348.15314 380.5409 348.4344L384.75964 348.4344ZM389.65027 349.45L389.65027 340.85626L393.46277 340.85626Q394.61902 340.85626 395.21277 341.09064Q395.80652 341.325 396.1659 341.91876Q396.52527 342.4969 396.52527 343.2Q396.52527 344.1219 395.93152 344.7469Q395.33777 345.3719 394.1034 345.54376Q394.55652 345.7625 394.7909 345.96564Q395.2909 346.41876 395.7284 347.10626L397.2284 349.45L395.7909 349.45L394.6659 347.66876Q394.1659 346.8875 393.83777 346.48126Q393.52527 346.075 393.25964 345.91876Q393.00964 345.7469 392.74402 345.66876Q392.55652 345.6375 392.11902 345.6375L390.7909 345.6375L390.7909 349.45L389.65027 349.45ZM390.7909 344.65314L393.24402 344.65314Q394.00964 344.65314 394.44714 344.4969Q394.90027 344.325 395.11902 343.98126Q395.3534 343.6219 395.3534 343.2Q395.3534 342.59064 394.90027 342.2Q394.46277 341.8094 393.50964 341.8094L390.7909 341.8094L390.7909 344.65314ZM398.11902 346.34064Q398.11902 344.60626 399.07214 343.77814Q399.86902 343.09064 401.02527 343.09064Q402.30652 343.09064 403.11902 343.9344Q403.94714 344.7625 403.94714 346.2469Q403.94714 347.45 403.58777 348.1375Q403.2284 348.825 402.52527 349.21564Q401.83777 349.59064 401.02527 349.59064Q399.7284 349.59064 398.9159 348.7625Q398.11902 347.91876 398.11902 346.34064ZM399.19714 346.34064Q399.19714 347.52814 399.71277 348.1219Q400.24402 348.71564 401.02527 348.71564Q401.82214 348.71564 402.33777 348.1219Q402.8534 347.52814 402.8534 346.3094Q402.8534 345.15314 402.32214 344.5594Q401.80652 343.96564 401.02527 343.96564Q400.24402 343.96564 399.71277 344.5594Q399.19714 345.1375 399.19714 346.34064ZM405.4784 349.45L405.4784 340.85626L406.5409 340.85626L406.5409 349.45L405.4784 349.45ZM408.4784 349.45L408.4784 340.85626L409.5409 340.85626L409.5409 349.45L408.4784 349.45ZM411.11902 346.34064Q411.11902 344.60626 412.07214 343.77814Q412.86902 343.09064 414.02527 343.09064Q415.30652 343.09064 416.11902 343.9344Q416.94714 344.7625 416.94714 346.2469Q416.94714 347.45 416.58777 348.1375Q416.2284 348.825 415.52527 349.21564Q414.83777 349.59064 414.02527 349.59064Q412.7284 349.59064 411.9159 348.7625Q411.11902 347.91876 411.11902 346.34064ZM412.19714 346.34064Q412.19714 347.52814 412.71277 348.1219Q413.24402 348.71564 414.02527 348.71564Q414.82214 348.71564 415.33777 348.1219Q415.8534 347.52814 415.8534 346.3094Q415.8534 345.15314 415.32214 344.5594Q414.80652 343.96564 414.02527 343.96564Q413.24402 343.96564 412.71277 344.5594Q412.19714 345.1375 412.19714 346.34064ZM422.58777 349.45L422.58777 348.52814Q421.8534 349.59064 420.6034 349.59064Q420.05652 349.59064 419.57214 349.3875Q419.1034 349.16876 418.86902 348.85626Q418.63464 348.52814 418.5409 348.0594Q418.4784 347.7625 418.4784 347.075L418.4784 343.23126L419.5409 343.23126L419.5409 346.6844Q419.5409 347.4969 419.6034 347.79376Q419.69714 348.2 420.00964 348.45Q420.33777 348.6844 420.82214 348.6844Q421.2909 348.6844 421.69714 348.45Q422.11902 348.2 422.2909 347.77814Q422.4784 347.35626 422.4784 346.5594L422.4784 343.23126L423.52527 343.23126L423.52527 349.45L422.58777 349.45ZM427.80652 348.5125L427.96277 349.4344Q427.50964 349.52814 427.1659 349.52814Q426.58777 349.52814 426.27527 349.35626Q425.96277 349.16876 425.82214 348.8719Q425.69714 348.575 425.69714 347.6219L425.69714 344.04376L424.93152 344.04376L424.93152 343.23126L425.69714 343.23126L425.69714 341.6844L426.74402 341.0594L426.74402 343.23126L427.80652 343.23126L427.80652 344.04376L426.74402 344.04376L426.74402 347.6844Q426.74402 348.1375 426.7909 348.2625Q426.8534 348.3875 426.9784 348.46564Q427.1034 348.54376 427.33777 348.54376Q427.52527 348.54376 427.80652 348.5125ZM428.08777 347.59064L429.11902 347.4344Q429.21277 348.0594 429.6034 348.3875Q430.00964 348.71564 430.74402 348.71564Q431.46277 348.71564 431.80652 348.4344Q432.1659 348.1375 432.1659 347.73126Q432.1659 347.3719 431.8534 347.16876Q431.63464 347.02814 430.77527 346.8094Q429.61902 346.5125 429.1659 346.3094Q428.7284 346.09064 428.49402 345.71564Q428.25964 345.34064 428.25964 344.8719Q428.25964 344.46564 428.44714 344.10626Q428.63464 343.7469 428.96277 343.5125Q429.21277 343.34064 429.63464 343.21564Q430.05652 343.09064 430.55652 343.09064Q431.27527 343.09064 431.82214 343.3094Q432.38464 343.5125 432.65027 343.8719Q432.9159 344.23126 433.00964 344.825L431.9784 344.96564Q431.9159 344.4969 431.57214 344.23126Q431.24402 343.95 430.61902 343.95Q429.90027 343.95 429.58777 344.2Q429.27527 344.4344 429.27527 344.7625Q429.27527 344.96564 429.40027 345.1219Q429.5409 345.29376 429.80652 345.40314Q429.96277 345.46564 430.74402 345.66876Q431.86902 345.98126 432.30652 346.16876Q432.74402 346.35626 432.99402 346.71564Q433.24402 347.075 433.24402 347.6219Q433.24402 348.15314 432.93152 348.6219Q432.63464 349.075 432.05652 349.34064Q431.4784 349.59064 430.74402 349.59064Q429.52527 349.59064 428.88464 349.09064Q428.25964 348.575 428.08777 347.59064ZM438.50964 351.84064L438.50964 343.23126L439.46277 343.23126L439.46277 344.02814Q439.80652 343.5594 440.2284 343.325Q440.6659 343.09064 441.27527 343.09064Q442.07214 343.09064 442.68152 343.4969Q443.2909 343.90314 443.58777 344.65314Q443.90027 345.40314 443.90027 346.29376Q443.90027 347.2469 443.55652 348.0125Q443.2284 348.77814 442.57214 349.1844Q441.9159 349.59064 441.19714 349.59064Q440.6659 349.59064 440.24402 349.3719Q439.82214 349.1375 439.55652 348.8094L439.55652 351.84064L438.50964 351.84064ZM439.46277 346.3719Q439.46277 347.575 439.94714 348.15314Q440.43152 348.71564 441.11902 348.71564Q441.82214 348.71564 442.32214 348.1219Q442.82214 347.52814 442.82214 346.27814Q442.82214 345.09064 442.33777 344.5125Q441.8534 343.91876 441.1659 343.91876Q440.49402 343.91876 439.9784 344.54376Q439.46277 345.16876 439.46277 346.3719ZM449.75964 347.45L450.8534 347.575Q450.6034 348.52814 449.90027 349.0594Q449.19714 349.59064 448.11902 349.59064Q446.75964 349.59064 445.94714 348.7469Q445.15027 347.90314 445.15027 346.3875Q445.15027 344.825 445.96277 343.96564Q446.77527 343.09064 448.05652 343.09064Q449.30652 343.09064 450.08777 343.9344Q450.88464 344.77814 450.88464 346.325Q450.88464 346.41876 450.88464 346.60626L446.24402 346.60626Q446.30652 347.6375 446.82214 348.1844Q447.33777 348.71564 448.11902 348.71564Q448.69714 348.71564 449.1034 348.41876Q449.52527 348.10626 449.75964 347.45ZM446.30652 345.7469L449.77527 345.7469Q449.71277 344.95 449.38464 344.5594Q448.86902 343.95 448.07214 343.95Q447.33777 343.95 446.83777 344.4344Q446.3534 344.91876 446.30652 345.7469ZM452.49402 349.45L452.49402 343.23126L453.44714 343.23126L453.44714 344.16876Q453.80652 343.5125 454.1034 343.3094Q454.4159 343.09064 454.7909 343.09064Q455.32214 343.09064 455.86902 343.41876L455.50964 344.40314Q455.11902 344.16876 454.74402 344.16876Q454.38464 344.16876 454.1034 344.3875Q453.83777 344.59064 453.7284 344.96564Q453.5409 345.52814 453.5409 346.1844L453.5409 349.45L452.49402 349.45ZM459.25964 346.6844L460.32214 346.59064Q460.40027 347.2469 460.68152 347.65314Q460.96277 348.0594 461.5409 348.325Q462.13464 348.575 462.86902 348.575Q463.50964 348.575 464.00964 348.3875Q464.50964 348.1844 464.74402 347.85626Q464.99402 347.5125 464.99402 347.1219Q464.99402 346.71564 464.75964 346.41876Q464.52527 346.10626 463.99402 345.90314Q463.63464 345.7625 462.44714 345.48126Q461.27527 345.2 460.80652 344.95Q460.18152 344.6219 459.88464 344.15314Q459.58777 343.66876 459.58777 343.075Q459.58777 342.4344 459.94714 341.8719Q460.32214 341.29376 461.02527 341.0125Q461.74402 340.71564 462.6034 340.71564Q463.55652 340.71564 464.2909 341.02814Q465.02527 341.325 465.4159 341.9344Q465.80652 342.52814 465.83777 343.27814L464.74402 343.35626Q464.65027 342.54376 464.13464 342.1375Q463.63464 341.71564 462.65027 341.71564Q461.61902 341.71564 461.15027 342.09064Q460.68152 342.46564 460.68152 342.9969Q460.68152 343.46564 461.00964 343.7625Q461.33777 344.0594 462.71277 344.3719Q464.1034 344.6844 464.61902 344.91876Q465.36902 345.27814 465.7284 345.8094Q466.08777 346.325 466.08777 347.02814Q466.08777 347.71564 465.69714 348.325Q465.30652 348.91876 464.57214 349.2625Q463.83777 349.59064 462.9159 349.59064Q461.74402 349.59064 460.94714 349.2625Q460.1659 348.91876 459.71277 348.23126Q459.27527 347.54376 459.25964 346.6844ZM471.57214 348.6844Q470.9784 349.1844 470.43152 349.3875Q469.90027 349.59064 469.27527 349.59064Q468.24402 349.59064 467.69714 349.09064Q467.15027 348.59064 467.15027 347.8094Q467.15027 347.35626 467.3534 346.98126Q467.55652 346.59064 467.90027 346.3719Q468.24402 346.1375 468.6659 346.02814Q468.96277 345.9344 469.6034 345.85626Q470.86902 345.71564 471.4784 345.4969Q471.4784 345.27814 471.4784 345.23126Q471.4784 344.575 471.18152 344.3094Q470.77527 343.96564 469.9784 343.96564Q469.24402 343.96564 468.88464 344.23126Q468.52527 344.48126 468.3534 345.1375L467.32214 344.9969Q467.46277 344.34064 467.7909 343.9344Q468.11902 343.52814 468.7284 343.3094Q469.33777 343.09064 470.13464 343.09064Q470.93152 343.09064 471.43152 343.27814Q471.93152 343.46564 472.1659 343.7469Q472.40027 344.02814 472.49402 344.46564Q472.5409 344.73126 472.5409 345.4344L472.5409 346.84064Q472.5409 348.3094 472.6034 348.7Q472.68152 349.09064 472.88464 349.45L471.77527 349.45Q471.61902 349.1219 471.57214 348.6844ZM471.4784 346.325Q470.90027 346.5594 469.75964 346.73126Q469.1034 346.825 468.83777 346.95Q468.57214 347.0594 468.4159 347.27814Q468.27527 347.4969 468.27527 347.77814Q468.27527 348.2 468.58777 348.48126Q468.9159 348.7625 469.52527 348.7625Q470.13464 348.7625 470.6034 348.4969Q471.08777 348.23126 471.30652 347.7625Q471.4784 347.40314 471.4784 346.71564L471.4784 346.325ZM474.50964 349.45L474.50964 343.23126L475.44714 343.23126L475.44714 344.10626Q475.74402 343.6375 476.2284 343.3719Q476.71277 343.09064 477.33777 343.09064Q478.02527 343.09064 478.46277 343.3719Q478.9159 343.65314 479.08777 344.16876Q479.83777 343.09064 481.00964 343.09064Q481.94714 343.09064 482.43152 343.60626Q482.93152 344.10626 482.93152 345.1844L482.93152 349.45L481.88464 349.45L481.88464 345.52814Q481.88464 344.90314 481.77527 344.6219Q481.68152 344.34064 481.4159 344.16876Q481.15027 343.9969 480.77527 343.9969Q480.11902 343.9969 479.68152 344.4344Q479.25964 344.8719 479.25964 345.84064L479.25964 349.45L478.19714 349.45L478.19714 345.40314Q478.19714 344.7 477.93152 344.35626Q477.68152 343.9969 477.1034 343.9969Q476.65027 343.9969 476.27527 344.23126Q475.90027 344.46564 475.7284 344.91876Q475.55652 345.3719 475.55652 346.21564L475.55652 349.45L474.50964 349.45ZM485.50964 351.84064L485.50964 343.23126L486.46277 343.23126L486.46277 344.02814Q486.80652 343.5594 487.2284 343.325Q487.6659 343.09064 488.27527 343.09064Q489.07214 343.09064 489.68152 343.4969Q490.2909 343.90314 490.58777 344.65314Q490.90027 345.40314 490.90027 346.29376Q490.90027 347.2469 490.55652 348.0125Q490.2284 348.77814 489.57214 349.1844Q488.9159 349.59064 488.19714 349.59064Q487.6659 349.59064 487.24402 349.3719Q486.82214 349.1375 486.55652 348.8094L486.55652 351.84064L485.50964 351.84064ZM486.46277 346.3719Q486.46277 347.575 486.94714 348.15314Q487.43152 348.71564 488.11902 348.71564Q488.82214 348.71564 489.32214 348.1219Q489.82214 347.52814 489.82214 346.27814Q489.82214 345.09064 489.33777 344.5125Q488.8534 343.91876 488.1659 343.91876Q487.49402 343.91876 486.9784 344.54376Q486.46277 345.16876 486.46277 346.3719ZM492.4784 349.45L492.4784 340.85626L493.5409 340.85626L493.5409 349.45L492.4784 349.45ZM499.75964 347.45L500.8534 347.575Q500.6034 348.52814 499.90027 349.0594Q499.19714 349.59064 498.11902 349.59064Q496.75964 349.59064 495.94714 348.7469Q495.15027 347.90314 495.15027 346.3875Q495.15027 344.825 495.96277 343.96564Q496.77527 343.09064 498.05652 343.09064Q499.30652 343.09064 500.08777 343.9344Q500.88464 344.77814 500.88464 346.325Q500.88464 346.41876 500.88464 346.60626L496.24402 346.60626Q496.30652 347.6375 496.82214 348.1844Q497.33777 348.71564 498.11902 348.71564Q498.69714 348.71564 499.1034 348.41876Q499.52527 348.10626 499.75964 347.45ZM496.30652 345.7469L499.77527 345.7469Q499.71277 344.95 499.38464 344.5594Q498.86902 343.95 498.07214 343.95Q497.33777 343.95 496.83777 344.4344Q496.3534 344.91876 496.30652 345.7469Z" fill-rule="nonzero"/><path fill="#4cdc8b" d="M191.5 56.916668C191.5 56.364384 191.94771 55.916668 192.5 55.916668L202.5 55.916668C203.05229 55.916668 203.5 56.364384 203.5 56.916668L203.5 66.916664C203.5 67.46895 203.05229 67.916664 202.5 67.916664L192.5 67.916664C191.94771 67.916664 191.5 67.46895 191.5 66.916664Z" fill-rule="nonzero"/><path fill="#1a1a1a" d="M211.48438 65.916664L214.78125 57.322914L216.0 57.322914L219.51562 65.916664L218.23438 65.916664L217.21875 63.30729L213.64062 63.30729L212.6875 65.916664L211.48438 65.916664ZM213.96875 62.385414L216.875 62.385414L215.98438 60.010414Q215.5625 58.93229 215.375 58.229164Q215.20312 59.05729 214.90625 59.86979L213.96875 62.385414ZM218.875 64.05729L219.90625 63.90104Q220.0 64.52604 220.39062 64.854164Q220.79688 65.18229 221.53125 65.18229Q222.25 65.18229 222.59375 64.90104Q222.95312 64.604164 222.95312 64.197914Q222.95312 63.83854 222.64062 63.635414Q222.42188 63.49479 221.5625 63.27604Q220.40625 62.979164 219.95312 62.77604Q219.51562 62.55729 219.28125 62.18229Q219.04688 61.80729 219.04688 61.33854Q219.04688 60.93229 219.23438 60.572914Q219.42188 60.21354 219.75 59.979164Q220.0 59.80729 220.42188 59.68229Q220.84375 59.55729 221.34375 59.55729Q222.0625 59.55729 222.60938 59.77604Q223.17188 59.979164 223.4375 60.33854Q223.70312 60.697914 223.79688 61.291664L222.76562 61.43229Q222.70312 60.96354 222.35938 60.697914Q222.03125 60.416664 221.40625 60.416664Q220.6875 60.416664 220.375 60.666664Q220.0625 60.90104 220.0625 61.229164Q220.0625 61.43229 220.1875 61.58854Q220.32812 61.760414 220.59375 61.86979Q220.75 61.93229 221.53125 62.135414Q222.65625 62.447914 223.09375 62.635414Q223.53125 62.822914 223.78125 63.18229Q224.03125 63.541664 224.03125 64.08854Q224.03125 64.61979 223.71875 65.08854Q223.42188 65.541664 222.84375 65.80729Q222.26562 66.05729 221.53125 66.05729Q220.3125 66.05729 219.67188 65.55729Q219.04688 65.041664 218.875 64.05729ZM226.25 68.30729L226.125 67.322914Q226.46875 67.416664 226.73438 67.416664Q227.07812 67.416664 227.28125 67.291664Q227.5 67.18229 227.64062 66.979164Q227.73438 66.80729 227.96875 66.18229Q227.98438 66.104164 228.0625 65.93229L225.6875 59.697914L226.82812 59.697914L228.125 63.291664Q228.375 63.979164 228.57812 64.74479Q228.76562 64.010414 229.01562 63.322914L230.34375 59.697914L231.39062 59.697914L229.03125 66.02604Q228.64062 67.041664 228.4375 67.43229Q228.15625 67.96354 227.78125 68.197914Q227.42188 68.447914 226.92188 68.447914Q226.625 68.447914 226.25 68.30729ZM231.29688 65.916664L231.29688 59.697914L232.23438 59.697914L232.23438 60.572914Q232.92188 59.55729 234.21875 59.55729Q234.78125 59.55729 235.25 59.760414Q235.73438 59.96354 235.96875 60.291664Q236.20312 60.61979 236.29688 61.05729Q236.34375 61.354164 236.34375 62.08854L236.34375 65.916664L235.29688 65.916664L235.29688 62.135414Q235.29688 61.479164 235.17188 61.166664Q235.04688 60.854164 234.73438 60.666664Q234.42188 60.46354 234.0 60.46354Q233.32812 60.46354 232.82812 60.90104Q232.34375 61.322914 232.34375 62.510414L232.34375 65.916664L231.29688 65.916664ZM242.35938 63.635414L243.39062 63.77604Q243.21875 64.83854 242.51562 65.447914Q241.8125 66.05729 240.79688 66.05729Q239.51562 66.05729 238.73438 65.229164Q237.96875 64.385414 237.96875 62.822914Q237.96875 61.822914 238.29688 61.072914Q238.64062 60.30729 239.3125 59.93229Q240.0 59.55729 240.8125 59.55729Q241.8125 59.55729 242.45312 60.072914Q243.10938 60.572914 243.29688 61.52604L242.26562 61.68229Q242.125 61.05729 241.75 60.74479Q241.375 60.416664 240.84375 60.416664Q240.04688 60.416664 239.54688 60.99479Q239.04688 61.55729 239.04688 62.791664Q239.04688 64.05729 239.53125 64.61979Q240.01562 65.18229 240.78125 65.18229Q241.40625 65.18229 241.8125 64.80729Q242.23438 64.43229 242.35938 63.635414ZM243.875 63.33854L243.875 62.27604L247.125 62.27604L247.125 63.33854L243.875 63.33854ZM252.45312 62.541664L252.45312 61.541664L256.07812 61.52604L256.07812 64.71354Q255.25 65.385414 254.35938 65.729164Q253.46875 66.05729 252.53125 66.05729Q251.26562 66.05729 250.21875 65.52604Q249.1875 64.979164 248.65625 63.96354Q248.14062 62.93229 248.14062 61.666664Q248.14062 60.40104 248.65625 59.322914Q249.1875 58.229164 250.17188 57.71354Q251.15625 57.18229 252.4375 57.18229Q253.375 57.18229 254.125 57.479164Q254.875 57.77604 255.29688 58.322914Q255.73438 58.854164 255.95312 59.729164L254.9375 60.010414Q254.73438 59.354164 254.4375 58.979164Q254.15625 58.604164 253.625 58.385414Q253.09375 58.15104 252.45312 58.15104Q251.67188 58.15104 251.09375 58.385414Q250.53125 58.61979 250.17188 59.010414Q249.82812 59.40104 249.64062 59.86979Q249.3125 60.666664 249.3125 61.58854Q249.3125 62.74479 249.70312 63.52604Q250.10938 64.291664 250.85938 64.666664Q251.60938 65.041664 252.46875 65.041664Q253.20312 65.041664 253.90625 64.760414Q254.60938 64.46354 254.96875 64.15104L254.96875 62.541664L252.45312 62.541664ZM257.4375 65.916664L257.4375 57.322914L261.25 57.322914Q262.40625 57.322914 263.0 57.55729Q263.59375 57.791664 263.95312 58.385414Q264.3125 58.96354 264.3125 59.666664Q264.3125 60.58854 263.71875 61.21354Q263.125 61.83854 261.89062 62.010414Q262.34375 62.229164 262.57812 62.43229Q263.07812 62.885414 263.51562 63.572914L265.01562 65.916664L263.57812 65.916664L262.45312 64.135414Q261.95312 63.354164 261.625 62.947914Q261.3125 62.541664 261.04688 62.385414Q260.79688 62.21354 260.53125 62.135414Q260.34375 62.104164 259.90625 62.104164L258.57812 62.104164L258.57812 65.916664L257.4375 65.916664ZM258.57812 61.11979L261.03125 61.11979Q261.79688 61.11979 262.23438 60.96354Q262.6875 60.791664 262.90625 60.447914Q263.14062 60.08854 263.14062 59.666664Q263.14062 59.05729 262.6875 58.666664Q262.25 58.27604 261.29688 58.27604L258.57812 58.27604L258.57812 61.11979ZM266.42188 65.916664L266.42188 57.322914L269.67188 57.322914Q270.51562 57.322914 270.96875 57.40104Q271.60938 57.510414 272.03125 57.80729Q272.46875 58.104164 272.71875 58.635414Q272.98438 59.166664 272.98438 59.80729Q272.98438 60.90104 272.28125 61.666664Q271.59375 62.416664 269.76562 62.416664L267.5625 62.416664L267.5625 65.916664L266.42188 65.916664ZM267.5625 61.416664L269.78125 61.416664Q270.89062 61.416664 271.34375 61.010414Q271.8125 60.58854 271.8125 59.83854Q271.8125 59.30729 271.53125 58.93229Q271.26562 58.541664 270.82812 58.416664Q270.53125 58.33854 269.76562 58.33854L267.5625 58.33854L267.5625 61.416664ZM274.07812 61.729164Q274.07812 59.58854 275.21875 58.385414Q276.375 57.166664 278.1875 57.166664Q279.39062 57.166664 280.34375 57.74479Q281.29688 58.30729 281.79688 59.322914Q282.29688 60.33854 282.29688 61.635414Q282.29688 62.93229 281.76562 63.96354Q281.23438 64.99479 280.26562 65.52604Q279.3125 66.05729 278.1875 66.05729Q276.96875 66.05729 276.01562 65.479164Q275.0625 64.885414 274.5625 63.885414Q274.07812 62.86979 274.07812 61.729164ZM275.25 61.74479Q275.25 63.30729 276.07812 64.197914Q276.92188 65.08854 278.1875 65.08854Q279.46875 65.08854 280.29688 64.197914Q281.125 63.291664 281.125 61.61979Q281.125 60.572914 280.76562 59.791664Q280.42188 59.010414 279.73438 58.58854Q279.04688 58.15104 278.20312 58.15104Q277.0 58.15104 276.125 58.979164Q275.25 59.80729 275.25 61.74479Z" fill-rule="nonzero"/><path fill="#999999" d="M298.5 56.916668C298.5 56.364384 298.94772 55.916668 299.5 55.916668L309.5 55.916668C310.05228 55.916668 310.5 56.364384 310.5 56.916668L310.5 66.916664C310.5 67.46895 310.05228 67.916664 309.5 67.916664L299.5 67.916664C298.94772 67.916664 298.5 67.46895 298.5 66.916664Z" fill-rule="nonzero"/><path fill="#1a1a1a" d="M321.875 65.916664L318.54688 57.322914L319.78125 57.322914L322.01562 63.572914Q322.28125 64.322914 322.46875 64.979164Q322.67188 64.27604 322.9375 63.572914L325.25 57.322914L326.40625 57.322914L323.04688 65.916664L321.875 65.916664ZM326.45312 65.916664L326.45312 57.322914L332.65625 57.322914L332.65625 58.33854L327.59375 58.33854L327.59375 60.96354L332.34375 60.96354L332.34375 61.979164L327.59375 61.979164L327.59375 64.90104L332.85938 64.90104L332.85938 65.916664L326.45312 65.916664ZM334.4375 65.916664L334.4375 57.322914L338.25 57.322914Q339.40625 57.322914 340.0 57.55729Q340.59375 57.791664 340.95312 58.385414Q341.3125 58.96354 341.3125 59.666664Q341.3125 60.58854 340.71875 61.21354Q340.125 61.83854 338.89062 62.010414Q339.34375 62.229164 339.57812 62.43229Q340.07812 62.885414 340.51562 63.572914L342.01562 65.916664L340.57812 65.916664L339.45312 64.135414Q338.95312 63.354164 338.625 62.947914Q338.3125 62.541664 338.04688 62.385414Q337.79688 62.21354 337.53125 62.135414Q337.34375 62.104164 336.90625 62.104164L335.57812 62.104164L335.57812 65.916664L334.4375 65.916664ZM335.57812 61.11979L338.03125 61.11979Q338.79688 61.11979 339.23438 60.96354Q339.6875 60.791664 339.90625 60.447914Q340.14062 60.08854 340.14062 59.666664Q340.14062 59.05729 339.6875 58.666664Q339.25 58.27604 338.29688 58.27604L335.57812 58.27604L335.57812 61.11979ZM343.375 65.916664L343.375 57.322914L344.51562 57.322914L344.51562 64.90104L348.75 64.90104L348.75 65.916664L343.375 65.916664Z" fill-rule="nonzero"/><path fill="#666666" d="M365.5 56.916668C365.5 56.364384 365.94772 55.916668 366.5 55.916668L376.5 55.916668C377.05228 55.916668 377.5 56.364384 377.5 56.916668L377.5 66.916664C377.5 67.46895 377.05228 67.916664 376.5 67.916664L366.5 67.916664C365.94772 67.916664 365.5 67.46895 365.5 66.916664Z" fill-rule="nonzero"/><path fill="#1a1a1a" d="M388.60938 65.916664L388.60938 58.33854L385.78125 58.33854L385.78125 57.322914L392.59375 57.322914L392.59375 58.33854L389.75 58.33854L389.75 65.916664L388.60938 65.916664ZM393.4375 65.916664L393.4375 57.322914L397.25 57.322914Q398.40625 57.322914 399.0 57.55729Q399.59375 57.791664 399.95312 58.385414Q400.3125 58.96354 400.3125 59.666664Q400.3125 60.58854 399.71875 61.21354Q399.125 61.83854 397.89062 62.010414Q398.34375 62.229164 398.57812 62.43229Q399.07812 62.885414 399.51562 63.572914L401.01562 65.916664L399.57812 65.916664L398.45312 64.135414Q397.95312 63.354164 397.625 62.947914Q397.3125 62.541664 397.04688 62.385414Q396.79688 62.21354 396.53125 62.135414Q396.34375 62.104164 395.90625 62.104164L394.57812 62.104164L394.57812 65.916664L393.4375 65.916664ZM394.57812 61.11979L397.03125 61.11979Q397.79688 61.11979 398.23438 60.96354Q398.6875 60.791664 398.90625 60.447914Q399.14062 60.08854 399.14062 59.666664Q399.14062 59.05729 398.6875 58.666664Q398.25 58.27604 397.29688 58.27604L394.57812 58.27604L394.57812 61.11979ZM402.375 65.916664L402.375 57.322914L403.51562 57.322914L403.51562 64.90104L407.75 64.90104L407.75 65.916664L402.375 65.916664Z" fill-rule="nonzero"/><path fill="#757575" d="M19.45625 32.95625L21.2375 32.8Q21.3625 33.8625 21.815624 34.55Q22.284374 35.2375 23.253124 35.675Q24.2375 36.096874 25.471874 36.096874Q26.55 36.096874 27.378124 35.784374Q28.20625 35.45625 28.6125 34.89375Q29.01875 34.33125 29.01875 33.659374Q29.01875 32.9875 28.628124 32.4875Q28.2375 31.9875 27.346874 31.64375Q26.76875 31.409374 24.784374 30.940624Q22.815624 30.471874 22.034374 30.05Q21.003124 29.51875 20.503124 28.721874Q20.003124 27.925 20.003124 26.940624Q20.003124 25.846874 20.6125 24.909374Q21.221874 23.971874 22.409374 23.4875Q23.596874 22.9875 25.034374 22.9875Q26.628124 22.9875 27.846874 23.503124Q29.065624 24.01875 29.70625 25.01875Q30.3625 26.003124 30.409374 27.26875L28.596874 27.409374Q28.45625 26.05 27.6125 25.3625Q26.76875 24.659374 25.1125 24.659374Q23.39375 24.659374 22.596874 25.3Q21.815624 25.925 21.815624 26.8Q21.815624 27.58125 22.378124 28.08125Q22.925 28.58125 25.2375 29.096874Q27.55 29.6125 28.409374 30.003124Q29.659374 30.58125 30.253124 31.471874Q30.846874 32.346874 30.846874 33.503124Q30.846874 34.64375 30.190624 35.659374Q29.534374 36.675 28.3 37.2375Q27.08125 37.8 25.55 37.8Q23.6125 37.8 22.3 37.2375Q20.9875 36.659374 20.2375 35.51875Q19.4875 34.378124 19.45625 32.95625ZM36.70625 35.971874L36.95625 37.534374Q36.221874 37.690624 35.628124 37.690624Q34.675 37.690624 34.14375 37.39375Q33.628124 37.08125 33.409374 36.596874Q33.190624 36.096874 33.190624 34.51875L33.190624 28.55L31.909374 28.55L31.909374 27.175L33.190624 27.175L33.190624 24.6125L34.940624 23.55L34.940624 27.175L36.70625 27.175L36.70625 28.55L34.940624 28.55L34.940624 34.6125Q34.940624 35.3625 35.034374 35.58125Q35.128124 35.784374 35.33125 35.925Q35.55 36.05 35.940624 36.05Q36.221874 36.05 36.70625 35.971874ZM45.971874 34.20625L47.784374 34.440624Q47.3625 36.01875 46.190624 36.909374Q45.034374 37.784374 43.221874 37.784374Q40.95625 37.784374 39.6125 36.39375Q38.284374 34.9875 38.284374 32.45625Q38.284374 29.83125 39.628124 28.39375Q40.971874 26.940624 43.128124 26.940624Q45.20625 26.940624 46.51875 28.3625Q47.846874 29.76875 47.846874 32.346874Q47.846874 32.503124 47.83125 32.815624L40.096874 32.815624Q40.190624 34.51875 41.065624 35.425Q41.940624 36.33125 43.2375 36.33125Q44.20625 36.33125 44.878124 35.83125Q45.565624 35.315624 45.971874 34.20625ZM40.190624 31.3625L45.9875 31.3625Q45.878124 30.065624 45.33125 29.409374Q44.4875 28.39375 43.14375 28.39375Q41.940624 28.39375 41.1125 29.20625Q40.284374 30.003124 40.190624 31.3625ZM49.8625 41.51875L49.8625 27.175L51.471874 27.175L51.471874 28.51875Q52.034374 27.7375 52.7375 27.346874Q53.45625 26.940624 54.471874 26.940624Q55.8 26.940624 56.815624 27.628124Q57.83125 28.315624 58.346874 29.565624Q58.878124 30.8 58.878124 32.284374Q58.878124 33.878124 58.3 35.159374Q57.7375 36.425 56.64375 37.1125Q55.55 37.784374 54.346874 37.784374Q53.471874 37.784374 52.76875 37.409374Q52.08125 37.034374 51.628124 36.471874L51.628124 41.51875L49.8625 41.51875ZM51.45625 32.425Q51.45625 34.425 52.26875 35.378124Q53.08125 36.33125 54.2375 36.33125Q55.409374 36.33125 56.2375 35.346874Q57.08125 34.3625 57.08125 32.26875Q57.08125 30.3 56.253124 29.315624Q55.440624 28.315624 54.315624 28.315624Q53.190624 28.315624 52.315624 29.378124Q51.45625 30.425 51.45625 32.425ZM60.159374 34.45625L61.909374 34.175Q62.05 35.221874 62.721874 35.784374Q63.39375 36.33125 64.59688 36.33125Q65.8 36.33125 66.37813 35.846874Q66.97188 35.346874 66.97188 34.690624Q66.97188 34.096874 66.45625 33.753124Q66.09688 33.51875 64.65938 33.159374Q62.721874 32.659374 61.971874 32.315624Q61.2375 31.95625 60.846874 31.33125Q60.45625 30.690624 60.45625 29.925Q60.45625 29.2375 60.76875 28.64375Q61.096874 28.05 61.64375 27.659374Q62.05 27.3625 62.753124 27.159374Q63.471874 26.940624 64.28438 26.940624Q65.50313 26.940624 66.425 27.3Q67.34688 27.64375 67.78438 28.253124Q68.22188 28.846874 68.39375 29.846874L66.675 30.08125Q66.55 29.284374 65.9875 28.846874Q65.425 28.39375 64.40938 28.39375Q63.190624 28.39375 62.675 28.8Q62.159374 29.190624 62.159374 29.721874Q62.159374 30.065624 62.378124 30.346874Q62.58125 30.628124 63.05 30.815624Q63.315624 30.909374 64.59688 31.253124Q66.47188 31.753124 67.20625 32.08125Q67.94063 32.39375 68.3625 33.003124Q68.78438 33.596874 68.78438 34.503124Q68.78438 35.378124 68.26875 36.159374Q67.75313 36.940624 66.78438 37.3625Q65.81563 37.784374 64.59688 37.784374Q62.58125 37.784374 61.51875 36.940624Q60.45625 36.096874 60.159374 34.45625ZM76.8625 41.51875L76.8625 27.175L78.47188 27.175L78.47188 28.51875Q79.03438 27.7375 79.7375 27.346874Q80.45625 26.940624 81.47188 26.940624Q82.8 26.940624 83.81563 27.628124Q84.83125 28.315624 85.34688 29.565624Q85.87813 30.8 85.87813 32.284374Q85.87813 33.878124 85.3 35.159374Q84.7375 36.425 83.64375 37.1125Q82.55 37.784374 81.34688 37.784374Q80.47188 37.784374 79.76875 37.409374Q79.08125 37.034374 78.62813 36.471874L78.62813 41.51875L76.8625 41.51875ZM78.45625 32.425Q78.45625 34.425 79.26875 35.378124Q80.08125 36.33125 81.2375 36.33125Q82.40938 36.33125 83.2375 35.346874Q84.08125 34.3625 84.08125 32.26875Q84.08125 30.3 83.25313 29.315624Q82.44063 28.315624 81.31563 28.315624Q80.19063 28.315624 79.31563 29.378124Q78.45625 30.425 78.45625 32.425ZM94.97188 34.20625L96.78438 34.440624Q96.3625 36.01875 95.19063 36.909374Q94.03438 37.784374 92.22188 37.784374Q89.95625 37.784374 88.6125 36.39375Q87.28438 34.9875 87.28438 32.45625Q87.28438 29.83125 88.62813 28.39375Q89.97188 26.940624 92.12813 26.940624Q94.20625 26.940624 95.51875 28.3625Q96.84688 29.76875 96.84688 32.346874Q96.84688 32.503124 96.83125 32.815624L89.09688 32.815624Q89.19063 34.51875 90.06563 35.425Q90.94063 36.33125 92.2375 36.33125Q93.20625 36.33125 93.87813 35.83125Q94.56563 35.315624 94.97188 34.20625ZM89.19063 31.3625L94.9875 31.3625Q94.87813 30.065624 94.33125 29.409374Q93.4875 28.39375 92.14375 28.39375Q90.94063 28.39375 90.1125 29.20625Q89.28438 30.003124 89.19063 31.3625ZM98.84688 37.55L98.84688 27.175L100.425 27.175L100.425 28.753124Q101.03438 27.64375 101.55 27.3Q102.06563 26.940624 102.675 26.940624Q103.56563 26.940624 104.4875 27.503124L103.87813 29.14375Q103.2375 28.753124 102.59688 28.753124Q102.01875 28.753124 101.55 29.1125Q101.09688 29.45625 100.89375 30.065624Q100.6125 31.003124 100.6125 32.1125L100.6125 37.55L98.84688 37.55ZM112.15938 37.55L112.15938 23.2375L114.05 23.2375L114.05 29.1125L121.4875 29.1125L121.4875 23.2375L123.37813 23.2375L123.37813 37.55L121.4875 37.55L121.4875 30.8L114.05 30.8L114.05 37.55L112.15938 37.55ZM124.22188 32.3625Q124.22188 29.4875 125.81563 28.096874Q127.15938 26.940624 129.08125 26.940624Q131.22188 26.940624 132.56563 28.346874Q133.925 29.753124 133.925 32.221874Q133.925 34.221874 133.33125 35.378124Q132.7375 36.51875 131.58125 37.159374Q130.44063 37.784374 129.08125 37.784374Q126.89375 37.784374 125.55 36.39375Q124.22188 34.9875 124.22188 32.3625ZM126.01875 32.3625Q126.01875 34.3625 126.87813 35.346874Q127.75313 36.33125 129.08125 36.33125Q130.39375 36.33125 131.25313 35.346874Q132.12813 34.346874 132.12813 32.3Q132.12813 30.378124 131.25313 29.39375Q130.37813 28.39375 129.08125 28.39375Q127.75313 28.39375 126.87813 29.39375Q126.01875 30.378124 126.01875 32.3625ZM142.65938 37.55L142.65938 36.01875Q141.45625 37.784374 139.37813 37.784374Q138.45625 37.784374 137.65938 37.440624Q136.8625 37.08125 136.47188 36.55Q136.09688 36.01875 135.94063 35.2375Q135.83125 34.721874 135.83125 33.596874L135.83125 27.175L137.58125 27.175L137.58125 32.925Q137.58125 34.3 137.69063 34.784374Q137.8625 35.471874 138.39375 35.878124Q138.94063 36.26875 139.72188 36.26875Q140.51875 36.26875 141.20625 35.8625Q141.90938 35.45625 142.19063 34.76875Q142.4875 34.065624 142.4875 32.7375L142.4875 27.175L144.2375 27.175L144.2375 37.55L142.65938 37.55ZM145.84688 37.55L145.84688 27.175L147.425 27.175L147.425 28.753124Q148.03438 27.64375 148.55 27.3Q149.06563 26.940624 149.675 26.940624Q150.56563 26.940624 151.4875 27.503124L150.87813 29.14375Q150.2375 28.753124 149.59688 28.753124Q149.01875 28.753124 148.55 29.1125Q148.09688 29.45625 147.89375 30.065624Q147.6125 31.003124 147.6125 32.1125L147.6125 37.55L145.84688 37.55ZM162.22188 41.753124Q160.76875 39.925 159.76875 37.471874Q158.76875 35.003124 158.76875 32.3625Q158.76875 30.034374 159.51875 27.909374Q160.39375 25.440624 162.22188 22.9875L163.4875 22.9875Q162.3 25.01875 161.925 25.89375Q161.33125 27.2375 160.9875 28.70625Q160.56563 30.534374 160.56563 32.378124Q160.56563 37.065624 163.4875 41.753124L162.22188 41.753124ZM166.15938 37.55L166.15938 23.2375L168.05 23.2375L168.05 29.1125L175.4875 29.1125L175.4875 23.2375L177.37813 23.2375L177.37813 37.55L175.4875 37.55L175.4875 30.8L168.05 30.8L168.05 37.55L166.15938 37.55ZM178.87813 25.253124L178.87813 23.2375L180.64375 23.2375L180.64375 25.253124L178.87813 25.253124ZM178.87813 37.55L178.87813 27.175L180.64375 27.175L180.64375 37.55L178.87813 37.55ZM182.55 38.409374L184.25313 38.659374Q184.3625 39.45625 184.84688 39.815624Q185.50313 40.3 186.64375 40.3Q187.8625 40.3 188.51875 39.815624Q189.19063 39.33125 189.425 38.45625Q189.56563 37.909374 189.55 36.190624Q188.39375 37.55 186.675 37.55Q184.53438 37.55 183.3625 36.003124Q182.19063 34.45625 182.19063 32.3Q182.19063 30.815624 182.72188 29.565624Q183.26875 28.315624 184.28438 27.628124Q185.31563 26.940624 186.69063 26.940624Q188.51875 26.940624 189.72188 28.425L189.72188 27.175L191.33125 27.175L191.33125 36.14375Q191.33125 38.565624 190.83125 39.565624Q190.34688 40.58125 189.26875 41.159374Q188.20625 41.753124 186.64375 41.753124Q184.8 41.753124 183.64375 40.925Q182.50313 40.096874 182.55 38.409374ZM184.00313 32.175Q184.00313 34.221874 184.81563 35.159374Q185.62813 36.096874 186.84688 36.096874Q188.05 36.096874 188.8625 35.159374Q189.69063 34.221874 189.69063 32.2375Q189.69063 30.33125 188.84688 29.3625Q188.00313 28.39375 186.81563 28.39375Q185.64375 28.39375 184.81563 29.346874Q184.00313 30.3 184.00313 32.175ZM193.8625 37.55L193.8625 23.2375L195.62813 23.2375L195.62813 28.3625Q196.8625 26.940624 198.7375 26.940624Q199.87813 26.940624 200.72188 27.39375Q201.58125 27.846874 201.94063 28.659374Q202.31563 29.45625 202.31563 30.971874L202.31563 37.55L200.56563 37.55L200.56563 30.971874Q200.56563 29.659374 199.9875 29.065624Q199.40938 28.45625 198.37813 28.45625Q197.59688 28.45625 196.89375 28.8625Q196.20625 29.26875 195.90938 29.971874Q195.62813 30.659374 195.62813 31.878124L195.62813 37.55L193.8625 37.55ZM210.97188 34.20625L212.78438 34.440624Q212.3625 36.01875 211.19063 36.909374Q210.03438 37.784374 208.22188 37.784374Q205.95625 37.784374 204.6125 36.39375Q203.28438 34.9875 203.28438 32.45625Q203.28438 29.83125 204.62813 28.39375Q205.97188 26.940624 208.12813 26.940624Q210.20625 26.940624 211.51875 28.3625Q212.84688 29.76875 212.84688 32.346874Q212.84688 32.503124 212.83125 32.815624L205.09688 32.815624Q205.19063 34.51875 206.06563 35.425Q206.94063 36.33125 208.2375 36.33125Q209.20625 36.33125 209.87813 35.83125Q210.56563 35.315624 210.97188 34.20625ZM205.19063 31.3625L210.9875 31.3625Q210.87813 30.065624 210.33125 29.409374Q209.4875 28.39375 208.14375 28.39375Q206.94063 28.39375 206.1125 29.20625Q205.28438 30.003124 205.19063 31.3625ZM214.84688 37.55L214.84688 27.175L216.425 27.175L216.425 28.753124Q217.03438 27.64375 217.55 27.3Q218.06563 26.940624 218.675 26.940624Q219.56563 26.940624 220.4875 27.503124L219.87813 29.14375Q219.2375 28.753124 218.59688 28.753124Q218.01875 28.753124 217.55 29.1125Q217.09688 29.45625 216.89375 30.065624Q216.6125 31.003124 216.6125 32.1125L216.6125 37.55L214.84688 37.55ZM227.87813 25.253124L227.87813 23.2375L229.64375 23.2375L229.64375 25.253124L227.87813 25.253124ZM227.87813 37.55L227.87813 27.175L229.64375 27.175L229.64375 37.55L227.87813 37.55ZM231.15938 34.45625L232.90938 34.175Q233.05 35.221874 233.72188 35.784374Q234.39375 36.33125 235.59688 36.33125Q236.8 36.33125 237.37813 35.846874Q237.97188 35.346874 237.97188 34.690624Q237.97188 34.096874 237.45625 33.753124Q237.09688 33.51875 235.65938 33.159374Q233.72188 32.659374 232.97188 32.315624Q232.2375 31.95625 231.84688 31.33125Q231.45625 30.690624 231.45625 29.925Q231.45625 29.2375 231.76875 28.64375Q232.09688 28.05 232.64375 27.659374Q233.05 27.3625 233.75313 27.159374Q234.47188 26.940624 235.28438 26.940624Q236.50313 26.940624 237.425 27.3Q238.34688 27.64375 238.78438 28.253124Q239.22188 28.846874 239.39375 29.846874L237.675 30.08125Q237.55 29.284374 236.9875 28.846874Q236.425 28.39375 235.40938 28.39375Q234.19063 28.39375 233.675 28.8Q233.15938 29.190624 233.15938 29.721874Q233.15938 30.065624 233.37813 30.346874Q233.58125 30.628124 234.05 30.815624Q234.31563 30.909374 235.59688 31.253124Q237.47188 31.753124 238.20625 32.08125Q238.94063 32.39375 239.3625 33.003124Q239.78438 33.596874 239.78438 34.503124Q239.78438 35.378124 239.26875 36.159374Q238.75313 36.940624 237.78438 37.3625Q236.81563 37.784374 235.59688 37.784374Q233.58125 37.784374 232.51875 36.940624Q231.45625 36.096874 231.15938 34.45625ZM248.01875 37.55L248.01875 23.2375L253.39375 23.2375Q255.03438 23.2375 256.01874 23.675Q257.0031 24.096874 257.5656 25.003124Q258.1281 25.909374 258.1281 26.89375Q258.1281 27.815624 257.6281 28.628124Q257.14374 29.440624 256.1281 29.925Q257.425 30.315624 258.1281 31.2375Q258.83124 32.14375 258.83124 33.39375Q258.83124 34.409374 258.39374 35.26875Q257.97186 36.128124 257.34686 36.596874Q256.72186 37.065624 255.78438 37.315624Q254.84688 37.55 253.47188 37.55L248.01875 37.55ZM249.90938 29.253124L253.00313 29.253124Q254.26875 29.253124 254.81563 29.08125Q255.53438 28.8625 255.89375 28.378124Q256.26874 27.878124 256.26874 27.1125Q256.26874 26.409374 255.925 25.8625Q255.58125 25.315624 254.94063 25.128124Q254.31563 24.925 252.76875 24.925L249.90938 24.925L249.90938 29.253124ZM249.90938 35.8625L253.47188 35.8625Q254.39375 35.8625 254.76875 35.784374Q255.425 35.675 255.8625 35.409374Q256.3 35.128124 256.58124 34.6125Q256.8625 34.08125 256.8625 33.39375Q256.8625 32.596874 256.45624 32.003124Q256.05 31.409374 255.31563 31.175Q254.58125 30.940624 253.22188 30.940624L249.90938 30.940624L249.90938 35.8625ZM267.97186 34.20625L269.78436 34.440624Q269.3625 36.01875 268.1906 36.909374Q267.03436 37.784374 265.22186 37.784374Q262.95624 37.784374 261.6125 36.39375Q260.28436 34.9875 260.28436 32.45625Q260.28436 29.83125 261.6281 28.39375Q262.97186 26.940624 265.1281 26.940624Q267.20624 26.940624 268.51874 28.3625Q269.84686 29.76875 269.84686 32.346874Q269.84686 32.503124 269.83124 32.815624L262.09686 32.815624Q262.1906 34.51875 263.0656 35.425Q263.9406 36.33125 265.2375 36.33125Q266.20624 36.33125 266.8781 35.83125Q267.5656 35.315624 267.97186 34.20625ZM262.1906 31.3625L267.9875 31.3625Q267.8781 30.065624 267.33124 29.409374Q266.4875 28.39375 265.14374 28.39375Q263.9406 28.39375 263.1125 29.20625Q262.28436 30.003124 262.1906 31.3625ZM275.70624 35.971874L275.95624 37.534374Q275.22186 37.690624 274.6281 37.690624Q273.675 37.690624 273.14374 37.39375Q272.6281 37.08125 272.40936 36.596874Q272.1906 36.096874 272.1906 34.51875L272.1906 28.55L270.90936 28.55L270.90936 27.175L272.1906 27.175L272.1906 24.6125L273.9406 23.55L273.9406 27.175L275.70624 27.175L275.70624 28.55L273.9406 28.55L273.9406 34.6125Q273.9406 35.3625 274.03436 35.58125Q274.1281 35.784374 274.33124 35.925Q274.55 36.05 274.9406 36.05Q275.22186 36.05 275.70624 35.971874ZM281.70624 35.971874L281.95624 37.534374Q281.22186 37.690624 280.6281 37.690624Q279.675 37.690624 279.14374 37.39375Q278.6281 37.08125 278.40936 36.596874Q278.1906 36.096874 278.1906 34.51875L278.1906 28.55L276.90936 28.55L276.90936 27.175L278.1906 27.175L278.1906 24.6125L279.9406 23.55L279.9406 27.175L281.70624 27.175L281.70624 28.55L279.9406 28.55L279.9406 34.6125Q279.9406 35.3625 280.03436 35.58125Q280.1281 35.784374 280.33124 35.925Q280.55 36.05 280.9406 36.05Q281.22186 36.05 281.70624 35.971874ZM290.97186 34.20625L292.78436 34.440624Q292.3625 36.01875 291.1906 36.909374Q290.03436 37.784374 288.22186 37.784374Q285.95624 37.784374 284.6125 36.39375Q283.28436 34.9875 283.28436 32.45625Q283.28436 29.83125 284.6281 28.39375Q285.97186 26.940624 288.1281 26.940624Q290.20624 26.940624 291.51874 28.3625Q292.84686 29.76875 292.84686 32.346874Q292.84686 32.503124 292.83124 32.815624L285.09686 32.815624Q285.1906 34.51875 286.0656 35.425Q286.9406 36.33125 288.2375 36.33125Q289.20624 36.33125 289.8781 35.83125Q290.5656 35.315624 290.97186 34.20625ZM285.1906 31.3625L290.9875 31.3625Q290.8781 30.065624 290.33124 29.409374Q289.4875 28.39375 288.14374 28.39375Q286.9406 28.39375 286.1125 29.20625Q285.28436 30.003124 285.1906 31.3625ZM294.84686 37.55L294.84686 27.175L296.425 27.175L296.425 28.753124Q297.03436 27.64375 297.55 27.3Q298.0656 26.940624 298.675 26.940624Q299.5656 26.940624 300.4875 27.503124L299.8781 29.14375Q299.2375 28.753124 298.59686 28.753124Q298.01874 28.753124 297.55 29.1125Q297.09686 29.45625 296.89374 30.065624Q296.6125 31.003124 296.6125 32.1125L296.6125 37.55L294.84686 37.55ZM303.01874 41.753124L301.76874 41.753124Q304.675 37.065624 304.675 32.378124Q304.675 30.534374 304.26874 28.7375Q303.925 27.26875 303.33124 25.925Q302.95624 25.034374 301.76874 22.9875L303.01874 22.9875Q304.8625 25.440624 305.7375 27.909374Q306.4875 30.034374 306.4875 32.3625Q306.4875 35.003124 305.47186 37.471874Q304.47186 39.925 303.01874 41.753124Z" fill-rule="nonzero"/></svg>